<mxfile host="app.diagrams.net" agent="Mozilla/5.0 (Macintosh; Intel Mac OS X 10_15_7) AppleWebKit/537.36 (KHTML, like Gecko) Chrome/141.0.0.0 Safari/537.36" version="28.2.5">
  <diagram name="Page-1" id="kEkYTPhfgNTUpZRSE3Kp">
    <mxGraphModel dx="2878" dy="1769" grid="1" gridSize="10" guides="1" tooltips="1" connect="1" arrows="1" fold="1" page="0" pageScale="1" pageWidth="1654" pageHeight="1169" background="none" math="0" shadow="0">
      <root>
        <mxCell id="0" />
        <mxCell id="1" parent="0" />
        <mxCell id="lN0mKdKQWCnUBSCiJq2a-1" value="Display" style="swimlane;whiteSpace=wrap;html=1;" parent="1" vertex="1">
          <mxGeometry x="320" y="-720" width="140" height="100" as="geometry" />
        </mxCell>
        <mxCell id="lN0mKdKQWCnUBSCiJq2a-3" value="&lt;ul&gt;&lt;li&gt;int: Floor&amp;nbsp;&lt;/li&gt;&lt;li&gt;Direction: dir&lt;/li&gt;&lt;/ul&gt;" style="text;html=1;align=left;verticalAlign=middle;resizable=0;points=[];autosize=1;strokeColor=none;fillColor=none;" parent="lN0mKdKQWCnUBSCiJq2a-1" vertex="1">
          <mxGeometry x="-10" y="20" width="130" height="70" as="geometry" />
        </mxCell>
        <mxCell id="lN0mKdKQWCnUBSCiJq2a-4" value="" style="swimlane;startSize=0;align=left;fontStyle=0" parent="1" vertex="1">
          <mxGeometry x="580" y="-630" width="120" height="90" as="geometry" />
        </mxCell>
        <mxCell id="lN0mKdKQWCnUBSCiJq2a-6" value="enum Direction{&lt;blockquote style=&quot;margin: 0 0 0 40px; border: none; padding: 0px;&quot;&gt;&lt;div&gt;UP,&lt;/div&gt;&lt;div&gt;DOWN&lt;/div&gt;&lt;/blockquote&gt;&lt;div&gt;}&lt;/div&gt;" style="text;html=1;align=left;verticalAlign=middle;resizable=0;points=[];autosize=1;strokeColor=none;fillColor=none;" parent="lN0mKdKQWCnUBSCiJq2a-4" vertex="1">
          <mxGeometry x="10" y="10" width="110" height="70" as="geometry" />
        </mxCell>
        <mxCell id="lN0mKdKQWCnUBSCiJq2a-7" value="" style="swimlane;startSize=0;align=left;fontStyle=0" parent="1" vertex="1">
          <mxGeometry x="580" y="-500" width="120" height="90" as="geometry" />
        </mxCell>
        <mxCell id="lN0mKdKQWCnUBSCiJq2a-8" value="enum Status{&lt;blockquote style=&quot;margin: 0 0 0 40px; border: none; padding: 0px;&quot;&gt;&lt;div&gt;Moving,&lt;/div&gt;&lt;div&gt;Idle&lt;/div&gt;&lt;/blockquote&gt;&lt;div&gt;}&lt;/div&gt;" style="text;html=1;align=left;verticalAlign=middle;resizable=0;points=[];autosize=1;strokeColor=none;fillColor=none;" parent="lN0mKdKQWCnUBSCiJq2a-7" vertex="1">
          <mxGeometry x="10" y="10" width="110" height="70" as="geometry" />
        </mxCell>
        <mxCell id="lN0mKdKQWCnUBSCiJq2a-10" value="Elevator Car" style="swimlane;whiteSpace=wrap;html=1;" parent="1" vertex="1">
          <mxGeometry x="290" y="-540" width="200" height="180" as="geometry" />
        </mxCell>
        <mxCell id="lN0mKdKQWCnUBSCiJq2a-11" value="&lt;ul&gt;&lt;li&gt;int: ID&lt;/li&gt;&lt;li&gt;Display: disp&lt;/li&gt;&lt;li&gt;int: Curr Floor&lt;/li&gt;&lt;li&gt;Direction: dir&lt;/li&gt;&lt;li&gt;Status: status&lt;/li&gt;&lt;li&gt;InternalButton: obj&lt;/li&gt;&lt;/ul&gt;" style="text;html=1;align=left;verticalAlign=middle;resizable=0;points=[];autosize=1;strokeColor=none;fillColor=none;" parent="lN0mKdKQWCnUBSCiJq2a-10" vertex="1">
          <mxGeometry x="10" y="15" width="160" height="120" as="geometry" />
        </mxCell>
        <mxCell id="lN0mKdKQWCnUBSCiJq2a-13" value="move(int DestFloor, Direction dir)" style="text;html=1;align=center;verticalAlign=middle;resizable=0;points=[];autosize=1;strokeColor=none;fillColor=none;" parent="lN0mKdKQWCnUBSCiJq2a-10" vertex="1">
          <mxGeometry y="140" width="200" height="30" as="geometry" />
        </mxCell>
        <mxCell id="lN0mKdKQWCnUBSCiJq2a-12" value="" style="endArrow=none;html=1;rounded=0;" parent="1" edge="1">
          <mxGeometry width="50" height="50" relative="1" as="geometry">
            <mxPoint x="290" y="-410" as="sourcePoint" />
            <mxPoint x="490" y="-410" as="targetPoint" />
          </mxGeometry>
        </mxCell>
        <mxCell id="lN0mKdKQWCnUBSCiJq2a-14" value="" style="endArrow=classic;html=1;rounded=0;entryX=0.5;entryY=1;entryDx=0;entryDy=0;exitX=0.5;exitY=0;exitDx=0;exitDy=0;" parent="1" source="lN0mKdKQWCnUBSCiJq2a-10" target="lN0mKdKQWCnUBSCiJq2a-1" edge="1">
          <mxGeometry width="50" height="50" relative="1" as="geometry">
            <mxPoint x="390" y="-570" as="sourcePoint" />
            <mxPoint x="470" y="-590" as="targetPoint" />
          </mxGeometry>
        </mxCell>
        <mxCell id="lN0mKdKQWCnUBSCiJq2a-15" value="HAS-A" style="edgeLabel;html=1;align=center;verticalAlign=middle;resizable=0;points=[];" parent="lN0mKdKQWCnUBSCiJq2a-14" vertex="1" connectable="0">
          <mxGeometry x="-0.15" y="1" relative="1" as="geometry">
            <mxPoint as="offset" />
          </mxGeometry>
        </mxCell>
        <mxCell id="lN0mKdKQWCnUBSCiJq2a-16" value="InternalButton" style="swimlane;whiteSpace=wrap;html=1;" parent="1" vertex="1">
          <mxGeometry x="-80" y="-780" width="230" height="160" as="geometry" />
        </mxCell>
        <mxCell id="lN0mKdKQWCnUBSCiJq2a-17" value="pressButton(int button)" style="text;html=1;align=center;verticalAlign=middle;resizable=0;points=[];autosize=1;strokeColor=none;fillColor=none;" parent="lN0mKdKQWCnUBSCiJq2a-16" vertex="1">
          <mxGeometry x="20" y="110" width="140" height="30" as="geometry" />
        </mxCell>
        <mxCell id="lN0mKdKQWCnUBSCiJq2a-30" value="&lt;ul&gt;&lt;li&gt;InternalButtonDispatcher: obj&lt;/li&gt;&lt;/ul&gt;" style="text;html=1;align=left;verticalAlign=middle;resizable=0;points=[];autosize=1;strokeColor=none;fillColor=none;" parent="lN0mKdKQWCnUBSCiJq2a-16" vertex="1">
          <mxGeometry x="-10" y="30" width="220" height="50" as="geometry" />
        </mxCell>
        <mxCell id="lN0mKdKQWCnUBSCiJq2a-18" value="" style="endArrow=none;html=1;rounded=0;" parent="1" edge="1">
          <mxGeometry width="50" height="50" relative="1" as="geometry">
            <mxPoint x="-80" y="-690" as="sourcePoint" />
            <mxPoint x="150" y="-690" as="targetPoint" />
          </mxGeometry>
        </mxCell>
        <mxCell id="lN0mKdKQWCnUBSCiJq2a-19" value="ElevatorController" style="swimlane;whiteSpace=wrap;html=1;" parent="1" vertex="1">
          <mxGeometry x="-100" y="-540" width="270" height="160" as="geometry" />
        </mxCell>
        <mxCell id="lN0mKdKQWCnUBSCiJq2a-20" value="&lt;ul&gt;&lt;li&gt;ElevatorCar: obj&lt;/li&gt;&lt;li&gt;Data Structure (min heap, max heap, &lt;br&gt;queue)&lt;/li&gt;&lt;/ul&gt;" style="text;html=1;align=left;verticalAlign=middle;resizable=0;points=[];autosize=1;strokeColor=none;fillColor=none;" parent="lN0mKdKQWCnUBSCiJq2a-19" vertex="1">
          <mxGeometry y="10" width="260" height="80" as="geometry" />
        </mxCell>
        <mxCell id="lN0mKdKQWCnUBSCiJq2a-27" value="acceptNewReq(int Floor, Direction dir)&lt;div&gt;&lt;br&gt;&lt;/div&gt;&lt;div&gt;controlElevator()&lt;/div&gt;" style="text;html=1;align=left;verticalAlign=middle;resizable=0;points=[];autosize=1;strokeColor=none;fillColor=none;" parent="lN0mKdKQWCnUBSCiJq2a-19" vertex="1">
          <mxGeometry x="40" y="90" width="230" height="60" as="geometry" />
        </mxCell>
        <mxCell id="lN0mKdKQWCnUBSCiJq2a-21" value="" style="endArrow=none;html=1;rounded=0;exitX=0;exitY=0.25;exitDx=0;exitDy=0;" parent="lN0mKdKQWCnUBSCiJq2a-19" edge="1">
          <mxGeometry width="50" height="50" relative="1" as="geometry">
            <mxPoint y="83.82" as="sourcePoint" />
            <mxPoint x="270" y="83.82" as="targetPoint" />
            <Array as="points">
              <mxPoint x="170" y="83.82" />
            </Array>
          </mxGeometry>
        </mxCell>
        <mxCell id="lN0mKdKQWCnUBSCiJq2a-22" value="" style="endArrow=classic;html=1;rounded=0;exitX=0;exitY=0;exitDx=0;exitDy=0;entryX=1;entryY=1;entryDx=0;entryDy=0;" parent="1" source="lN0mKdKQWCnUBSCiJq2a-10" target="lN0mKdKQWCnUBSCiJq2a-16" edge="1">
          <mxGeometry relative="1" as="geometry">
            <mxPoint x="-310" y="-430" as="sourcePoint" />
            <mxPoint x="-210" y="-430" as="targetPoint" />
          </mxGeometry>
        </mxCell>
        <mxCell id="lN0mKdKQWCnUBSCiJq2a-23" value="HAS-A" style="edgeLabel;resizable=0;html=1;;align=center;verticalAlign=middle;" parent="lN0mKdKQWCnUBSCiJq2a-22" connectable="0" vertex="1">
          <mxGeometry relative="1" as="geometry" />
        </mxCell>
        <mxCell id="lN0mKdKQWCnUBSCiJq2a-25" value="" style="endArrow=classic;html=1;rounded=0;entryX=0;entryY=0.5;entryDx=0;entryDy=0;" parent="1" target="lN0mKdKQWCnUBSCiJq2a-10" edge="1">
          <mxGeometry relative="1" as="geometry">
            <mxPoint x="170" y="-450" as="sourcePoint" />
            <mxPoint x="370" y="-230" as="targetPoint" />
          </mxGeometry>
        </mxCell>
        <mxCell id="lN0mKdKQWCnUBSCiJq2a-26" value="HAS-A" style="edgeLabel;resizable=0;html=1;;align=center;verticalAlign=middle;" parent="lN0mKdKQWCnUBSCiJq2a-25" connectable="0" vertex="1">
          <mxGeometry relative="1" as="geometry" />
        </mxCell>
        <mxCell id="lN0mKdKQWCnUBSCiJq2a-28" value="External Button&lt;div&gt;Dispatcher&lt;/div&gt;" style="swimlane;whiteSpace=wrap;html=1;startSize=40;" parent="1" vertex="1">
          <mxGeometry x="-482.5" y="-280" width="200" height="160" as="geometry" />
        </mxCell>
        <mxCell id="lN0mKdKQWCnUBSCiJq2a-48" value="SumbitReq(int Floor, Direction dir)" style="text;html=1;align=center;verticalAlign=middle;resizable=0;points=[];autosize=1;strokeColor=none;fillColor=none;" parent="lN0mKdKQWCnUBSCiJq2a-28" vertex="1">
          <mxGeometry y="110" width="200" height="30" as="geometry" />
        </mxCell>
        <mxCell id="Sv7O3x_LQ-dL_3ePFqM9-3" value="&lt;ul&gt;&lt;li&gt;List&amp;lt;ElevatorController&amp;gt;: lis&lt;/li&gt;&lt;/ul&gt;" style="text;html=1;align=left;verticalAlign=middle;resizable=0;points=[];autosize=1;strokeColor=none;fillColor=none;" vertex="1" parent="lN0mKdKQWCnUBSCiJq2a-28">
          <mxGeometry x="-10" y="40" width="210" height="50" as="geometry" />
        </mxCell>
        <mxCell id="Sv7O3x_LQ-dL_3ePFqM9-4" value="" style="endArrow=none;html=1;rounded=0;entryX=1;entryY=0.5;entryDx=0;entryDy=0;exitX=0.048;exitY=0.92;exitDx=0;exitDy=0;exitPerimeter=0;" edge="1" parent="lN0mKdKQWCnUBSCiJq2a-28" source="Sv7O3x_LQ-dL_3ePFqM9-3">
          <mxGeometry width="50" height="50" relative="1" as="geometry">
            <mxPoint x="-5" y="85" as="sourcePoint" />
            <mxPoint x="200" y="85" as="targetPoint" />
          </mxGeometry>
        </mxCell>
        <mxCell id="lN0mKdKQWCnUBSCiJq2a-29" value="Internal Button&lt;div&gt;Dispatcher&lt;/div&gt;" style="swimlane;whiteSpace=wrap;html=1;startSize=40;" parent="1" vertex="1">
          <mxGeometry x="-480" y="-560" width="205" height="160" as="geometry" />
        </mxCell>
        <mxCell id="lN0mKdKQWCnUBSCiJq2a-36" value="&lt;ul&gt;&lt;li&gt;List&amp;lt;ElevatorController&amp;gt;: lis&lt;/li&gt;&lt;/ul&gt;" style="text;html=1;align=left;verticalAlign=middle;resizable=0;points=[];autosize=1;strokeColor=none;fillColor=none;" parent="lN0mKdKQWCnUBSCiJq2a-29" vertex="1">
          <mxGeometry x="-5" y="35" width="210" height="50" as="geometry" />
        </mxCell>
        <mxCell id="lN0mKdKQWCnUBSCiJq2a-38" value="submitRequest( ,int ID)" style="text;html=1;align=left;verticalAlign=middle;resizable=0;points=[];autosize=1;strokeColor=none;fillColor=none;" parent="lN0mKdKQWCnUBSCiJq2a-29" vertex="1">
          <mxGeometry x="20" y="100" width="150" height="30" as="geometry" />
        </mxCell>
        <mxCell id="lN0mKdKQWCnUBSCiJq2a-33" value="" style="endArrow=classic;html=1;rounded=0;entryX=0.5;entryY=0;entryDx=0;entryDy=0;exitX=0;exitY=0.5;exitDx=0;exitDy=0;" parent="1" source="lN0mKdKQWCnUBSCiJq2a-16" target="lN0mKdKQWCnUBSCiJq2a-29" edge="1">
          <mxGeometry relative="1" as="geometry">
            <mxPoint x="-290" y="-680" as="sourcePoint" />
            <mxPoint x="-30" y="-620" as="targetPoint" />
            <Array as="points">
              <mxPoint x="-380" y="-700" />
            </Array>
          </mxGeometry>
        </mxCell>
        <mxCell id="lN0mKdKQWCnUBSCiJq2a-34" value="HAS-A" style="edgeLabel;resizable=0;html=1;;align=center;verticalAlign=middle;" parent="lN0mKdKQWCnUBSCiJq2a-33" connectable="0" vertex="1">
          <mxGeometry relative="1" as="geometry" />
        </mxCell>
        <mxCell id="lN0mKdKQWCnUBSCiJq2a-37" value="" style="endArrow=none;html=1;rounded=0;entryX=1;entryY=0.5;entryDx=0;entryDy=0;exitX=0;exitY=0.5;exitDx=0;exitDy=0;" parent="1" source="lN0mKdKQWCnUBSCiJq2a-29" target="lN0mKdKQWCnUBSCiJq2a-29" edge="1">
          <mxGeometry width="50" height="50" relative="1" as="geometry">
            <mxPoint x="-540" y="-300" as="sourcePoint" />
            <mxPoint x="-370" y="-340" as="targetPoint" />
          </mxGeometry>
        </mxCell>
        <mxCell id="lN0mKdKQWCnUBSCiJq2a-40" value="" style="endArrow=classic;html=1;rounded=0;exitX=1;exitY=0.75;exitDx=0;exitDy=0;" parent="1" source="lN0mKdKQWCnUBSCiJq2a-29" edge="1">
          <mxGeometry relative="1" as="geometry">
            <mxPoint x="-130" y="-620" as="sourcePoint" />
            <mxPoint x="-100" y="-440" as="targetPoint" />
          </mxGeometry>
        </mxCell>
        <mxCell id="lN0mKdKQWCnUBSCiJq2a-41" value="HAS-A" style="edgeLabel;resizable=0;html=1;;align=center;verticalAlign=middle;" parent="lN0mKdKQWCnUBSCiJq2a-40" connectable="0" vertex="1">
          <mxGeometry relative="1" as="geometry" />
        </mxCell>
        <mxCell id="lN0mKdKQWCnUBSCiJq2a-42" value="Odd Even Dispatcher" style="swimlane;whiteSpace=wrap;html=1;" parent="1" vertex="1">
          <mxGeometry x="-607.5" y="-30" width="200" height="70" as="geometry" />
        </mxCell>
        <mxCell id="lN0mKdKQWCnUBSCiJq2a-43" value="Fixed Floor Dispatcher" style="swimlane;whiteSpace=wrap;html=1;" parent="1" vertex="1">
          <mxGeometry x="-347.5" y="-30" width="200" height="70" as="geometry" />
        </mxCell>
        <mxCell id="lN0mKdKQWCnUBSCiJq2a-44" value="" style="endArrow=classic;html=1;rounded=0;entryX=0.5;entryY=1;entryDx=0;entryDy=0;exitX=0.5;exitY=0;exitDx=0;exitDy=0;" parent="1" source="lN0mKdKQWCnUBSCiJq2a-42" target="lN0mKdKQWCnUBSCiJq2a-28" edge="1">
          <mxGeometry width="50" height="50" relative="1" as="geometry">
            <mxPoint x="-722.5" y="-60" as="sourcePoint" />
            <mxPoint x="-672.5" y="-110" as="targetPoint" />
          </mxGeometry>
        </mxCell>
        <mxCell id="lN0mKdKQWCnUBSCiJq2a-47" value="IS-A" style="edgeLabel;html=1;align=center;verticalAlign=middle;resizable=0;points=[];" parent="lN0mKdKQWCnUBSCiJq2a-44" vertex="1" connectable="0">
          <mxGeometry x="0.0415" relative="1" as="geometry">
            <mxPoint as="offset" />
          </mxGeometry>
        </mxCell>
        <mxCell id="lN0mKdKQWCnUBSCiJq2a-45" value="" style="endArrow=classic;html=1;rounded=0;entryX=0.5;entryY=1;entryDx=0;entryDy=0;exitX=0.5;exitY=0;exitDx=0;exitDy=0;" parent="1" target="lN0mKdKQWCnUBSCiJq2a-28" edge="1">
          <mxGeometry width="50" height="50" relative="1" as="geometry">
            <mxPoint x="-257.5" y="-30" as="sourcePoint" />
            <mxPoint x="-752.5" y="-70" as="targetPoint" />
          </mxGeometry>
        </mxCell>
        <mxCell id="lN0mKdKQWCnUBSCiJq2a-46" value="IS-A" style="edgeLabel;html=1;align=center;verticalAlign=middle;resizable=0;points=[];" parent="lN0mKdKQWCnUBSCiJq2a-45" vertex="1" connectable="0">
          <mxGeometry x="0.0339" y="1" relative="1" as="geometry">
            <mxPoint x="1" as="offset" />
          </mxGeometry>
        </mxCell>
        <mxCell id="Sv7O3x_LQ-dL_3ePFqM9-1" value="" style="endArrow=classic;html=1;rounded=0;entryX=0;entryY=1;entryDx=0;entryDy=0;exitX=1;exitY=0;exitDx=0;exitDy=0;" edge="1" parent="1" source="lN0mKdKQWCnUBSCiJq2a-28">
          <mxGeometry relative="1" as="geometry">
            <mxPoint x="-140" y="-280" as="sourcePoint" />
            <mxPoint x="42.5" y="-380" as="targetPoint" />
            <Array as="points">
              <mxPoint x="42.5" y="-280" />
            </Array>
          </mxGeometry>
        </mxCell>
        <mxCell id="Sv7O3x_LQ-dL_3ePFqM9-2" value="HAS-A" style="edgeLabel;resizable=0;html=1;;align=center;verticalAlign=middle;" connectable="0" vertex="1" parent="Sv7O3x_LQ-dL_3ePFqM9-1">
          <mxGeometry relative="1" as="geometry" />
        </mxCell>
        <mxCell id="Sv7O3x_LQ-dL_3ePFqM9-5" value="ExternalButton" style="swimlane;whiteSpace=wrap;html=1;" vertex="1" parent="1">
          <mxGeometry x="-850" y="-280" width="230" height="160" as="geometry" />
        </mxCell>
        <mxCell id="Sv7O3x_LQ-dL_3ePFqM9-6" value="pressButton(int Floor, Direction dir)" style="text;html=1;align=center;verticalAlign=middle;resizable=0;points=[];autosize=1;strokeColor=none;fillColor=none;" vertex="1" parent="Sv7O3x_LQ-dL_3ePFqM9-5">
          <mxGeometry x="10" y="100" width="210" height="30" as="geometry" />
        </mxCell>
        <mxCell id="Sv7O3x_LQ-dL_3ePFqM9-7" value="&lt;ul&gt;&lt;li&gt;ExternalButtonDispatcher: obj&lt;/li&gt;&lt;/ul&gt;" style="text;html=1;align=left;verticalAlign=middle;resizable=0;points=[];autosize=1;strokeColor=none;fillColor=none;" vertex="1" parent="Sv7O3x_LQ-dL_3ePFqM9-5">
          <mxGeometry x="-10" y="30" width="220" height="50" as="geometry" />
        </mxCell>
        <mxCell id="Sv7O3x_LQ-dL_3ePFqM9-8" value="" style="endArrow=none;html=1;rounded=0;" edge="1" parent="Sv7O3x_LQ-dL_3ePFqM9-5">
          <mxGeometry width="50" height="50" relative="1" as="geometry">
            <mxPoint y="80" as="sourcePoint" />
            <mxPoint x="230" y="80" as="targetPoint" />
          </mxGeometry>
        </mxCell>
        <mxCell id="Sv7O3x_LQ-dL_3ePFqM9-9" value="" style="endArrow=classic;html=1;rounded=0;exitX=1;exitY=0.5;exitDx=0;exitDy=0;" edge="1" parent="1" source="Sv7O3x_LQ-dL_3ePFqM9-5">
          <mxGeometry relative="1" as="geometry">
            <mxPoint x="-610" y="-200" as="sourcePoint" />
            <mxPoint x="-480" y="-200" as="targetPoint" />
          </mxGeometry>
        </mxCell>
        <mxCell id="Sv7O3x_LQ-dL_3ePFqM9-10" value="HAS-A" style="edgeLabel;resizable=0;html=1;;align=center;verticalAlign=middle;" connectable="0" vertex="1" parent="Sv7O3x_LQ-dL_3ePFqM9-9">
          <mxGeometry relative="1" as="geometry" />
        </mxCell>
        <mxCell id="Sv7O3x_LQ-dL_3ePFqM9-11" value="Floor" style="swimlane;whiteSpace=wrap;html=1;" vertex="1" parent="1">
          <mxGeometry x="-835" y="-490" width="200" height="90" as="geometry" />
        </mxCell>
        <mxCell id="Sv7O3x_LQ-dL_3ePFqM9-12" value="&lt;ul&gt;&lt;li&gt;Floor id&lt;/li&gt;&lt;li&gt;ExternalButton obj&lt;/li&gt;&lt;/ul&gt;" style="text;html=1;align=left;verticalAlign=middle;resizable=0;points=[];autosize=1;strokeColor=none;fillColor=none;" vertex="1" parent="Sv7O3x_LQ-dL_3ePFqM9-11">
          <mxGeometry x="10" y="20" width="160" height="70" as="geometry" />
        </mxCell>
        <mxCell id="Sv7O3x_LQ-dL_3ePFqM9-13" value="" style="endArrow=classic;html=1;rounded=0;exitX=0.55;exitY=0.986;exitDx=0;exitDy=0;exitPerimeter=0;entryX=0.5;entryY=0;entryDx=0;entryDy=0;" edge="1" parent="1" source="Sv7O3x_LQ-dL_3ePFqM9-12" target="Sv7O3x_LQ-dL_3ePFqM9-5">
          <mxGeometry relative="1" as="geometry">
            <mxPoint x="-780" y="-350" as="sourcePoint" />
            <mxPoint x="-680" y="-350" as="targetPoint" />
          </mxGeometry>
        </mxCell>
        <mxCell id="Sv7O3x_LQ-dL_3ePFqM9-14" value="HAS-A" style="edgeLabel;resizable=0;html=1;;align=center;verticalAlign=middle;" connectable="0" vertex="1" parent="Sv7O3x_LQ-dL_3ePFqM9-13">
          <mxGeometry relative="1" as="geometry" />
        </mxCell>
        <mxCell id="Sv7O3x_LQ-dL_3ePFqM9-15" value="Building" style="swimlane;whiteSpace=wrap;html=1;" vertex="1" parent="1">
          <mxGeometry x="-835" y="-650" width="200" height="75" as="geometry" />
        </mxCell>
        <mxCell id="Sv7O3x_LQ-dL_3ePFqM9-16" value="&lt;ul&gt;&lt;li&gt;List&amp;lt;Floor&amp;gt;: lis&lt;/li&gt;&lt;/ul&gt;" style="text;html=1;align=left;verticalAlign=middle;resizable=0;points=[];autosize=1;strokeColor=none;fillColor=none;" vertex="1" parent="Sv7O3x_LQ-dL_3ePFqM9-15">
          <mxGeometry x="15" y="25" width="140" height="50" as="geometry" />
        </mxCell>
        <mxCell id="Sv7O3x_LQ-dL_3ePFqM9-17" value="" style="endArrow=classic;html=1;rounded=0;entryX=0.5;entryY=0;entryDx=0;entryDy=0;exitX=0.607;exitY=0.98;exitDx=0;exitDy=0;exitPerimeter=0;" edge="1" parent="1" source="Sv7O3x_LQ-dL_3ePFqM9-16" target="Sv7O3x_LQ-dL_3ePFqM9-11">
          <mxGeometry relative="1" as="geometry">
            <mxPoint x="-1200" y="-500" as="sourcePoint" />
            <mxPoint x="-1100" y="-500" as="targetPoint" />
          </mxGeometry>
        </mxCell>
        <mxCell id="Sv7O3x_LQ-dL_3ePFqM9-18" value="HAS-A" style="edgeLabel;resizable=0;html=1;;align=center;verticalAlign=middle;" connectable="0" vertex="1" parent="Sv7O3x_LQ-dL_3ePFqM9-17">
          <mxGeometry relative="1" as="geometry" />
        </mxCell>
      </root>
    </mxGraphModel>
  </diagram>
</mxfile>
